<svg width="26" height="27" viewBox="0 0 26 27" fill="none" xmlns="http://www.w3.org/2000/svg">
<path d="M3.39731 11.4033L2.26997 12.5307C1.79263 13.008 1.79263 13.7799 2.26997 14.2521L12.1368 24.124C12.6141 24.6014 13.386 24.6014 13.8583 24.124L23.7301 14.2521C24.2075 13.7748 24.2075 13.0029 23.7301 12.5307L22.6028 11.4033C22.1204 10.9209 21.3333 10.9311 20.861 11.4236L15.0313 17.5428V2.94824C15.0313 2.27285 14.4879 1.72949 13.8125 1.72949H12.1875C11.5122 1.72949 10.9688 2.27285 10.9688 2.94824V17.5428L5.13911 11.4236C4.66685 10.926 3.87974 10.9158 3.39731 11.4033Z" fill="#F9B21D"/>
</svg>
