<svg width="40" height="41" viewBox="0 0 40 41" fill="none" xmlns="http://www.w3.org/2000/svg">
<rect y="0.5" width="40" height="40" rx="6" fill="#F9B21D"/>
<path d="M16.125 26.5H13.2188V17.1562H16.125V26.5ZM14.6562 15.9062C13.75 15.9062 13 15.125 13 14.1875C13 13.2812 13.75 12.5312 14.6562 12.5312C15.5938 12.5312 16.3438 13.2812 16.3438 14.1875C16.3438 15.125 15.5938 15.9062 14.6562 15.9062ZM26.9688 26.5H24.0938V21.9688C24.0938 20.875 24.0625 19.5 22.5625 19.5C21.0625 19.5 20.8438 20.6562 20.8438 21.875V26.5H17.9375V17.1562H20.7188V18.4375H20.75C21.1562 17.7188 22.0938 16.9375 23.5 16.9375C26.4375 16.9375 27 18.875 27 21.375V26.5H26.9688Z" fill="white"/>
</svg>
