<svg width="25" height="26" viewBox="0 0 25 26" fill="none" xmlns="http://www.w3.org/2000/svg">
<mask id="path-1-inside-1_307_4268" fill="white">
<path d="M5.06388 19.9425C4.59079 19.9425 4.19609 19.7844 3.87978 19.468C3.56348 19.1517 3.40498 18.7567 3.4043 18.2829V7.22452C3.4043 6.75143 3.56279 6.35673 3.87978 6.04043C4.19677 5.72412 4.59113 5.56563 5.06285 5.56494H20.2312C20.7036 5.56494 21.0979 5.72344 21.4142 6.04043C21.7306 6.35742 21.889 6.75212 21.8897 7.22452V18.2839C21.8897 18.7564 21.7312 19.1511 21.4142 19.468C21.0973 19.785 20.7029 19.9432 20.2312 19.9425H5.06388ZM12.647 12.8729L4.43127 7.50078V18.2839C4.43127 18.4681 4.49049 18.6194 4.60893 18.7379C4.72737 18.8563 4.87902 18.9155 5.06388 18.9155H20.2312C20.4153 18.9155 20.5667 18.8563 20.6851 18.7379C20.8035 18.6194 20.8628 18.4678 20.8628 18.2829V7.49975L12.647 12.8729ZM12.647 11.7268L20.5465 6.59191H4.74757L12.647 11.7268ZM4.43127 7.50078V6.59191V18.2839C4.43127 18.4681 4.49049 18.6194 4.60893 18.7379C4.72737 18.8563 4.87902 18.9155 5.06388 18.9155H4.43127V7.50078Z"/>
</mask>
<path d="M5.06388 19.9425C4.59079 19.9425 4.19609 19.7844 3.87978 19.468C3.56348 19.1517 3.40498 18.7567 3.4043 18.2829V7.22452C3.4043 6.75143 3.56279 6.35673 3.87978 6.04043C4.19677 5.72412 4.59113 5.56563 5.06285 5.56494H20.2312C20.7036 5.56494 21.0979 5.72344 21.4142 6.04043C21.7306 6.35742 21.889 6.75212 21.8897 7.22452V18.2839C21.8897 18.7564 21.7312 19.1511 21.4142 19.468C21.0973 19.785 20.7029 19.9432 20.2312 19.9425H5.06388ZM12.647 12.8729L4.43127 7.50078V18.2839C4.43127 18.4681 4.49049 18.6194 4.60893 18.7379C4.72737 18.8563 4.87902 18.9155 5.06388 18.9155H20.2312C20.4153 18.9155 20.5667 18.8563 20.6851 18.7379C20.8035 18.6194 20.8628 18.4678 20.8628 18.2829V7.49975L12.647 12.8729ZM12.647 11.7268L20.5465 6.59191H4.74757L12.647 11.7268ZM4.43127 7.50078V6.59191V18.2839C4.43127 18.4681 4.49049 18.6194 4.60893 18.7379C4.72737 18.8563 4.87902 18.9155 5.06388 18.9155H4.43127V7.50078Z" fill="#101010"/>
<path d="M3.27593 18.2839C3.27593 18.741 3.43428 19.1971 3.79198 19.5548L5.42588 17.9209C5.47577 17.9708 5.52126 18.0371 5.55155 18.1145C5.58099 18.1897 5.58661 18.251 5.58661 18.2839H3.27593ZM3.79198 19.5548C4.15054 19.9134 4.60744 20.0709 5.06388 20.0709V17.7602C5.09593 17.7602 5.15677 17.7656 5.23177 17.7949C5.30901 17.8251 5.37555 17.8706 5.42588 17.9209L3.79198 19.5548ZM3.4043 18.2829H1.09361L1.09362 18.2863L3.4043 18.2829ZM5.06285 5.56494V3.25426L5.0595 3.25426L5.06285 5.56494ZM21.8897 7.22452H24.2004L24.2004 7.22117L21.8897 7.22452ZM20.2312 19.9425L20.2345 17.6318H20.2312V19.9425ZM12.647 12.8729L11.3825 14.8068L12.6471 15.6337L13.9117 14.8067L12.647 12.8729ZM20.8628 18.2829H18.5521H20.8628ZM20.8628 7.49975H23.1734V3.2276L19.598 5.56592L20.8628 7.49975ZM12.647 11.7268L11.3877 13.6641L12.647 14.4827L13.9063 13.6641L12.647 11.7268ZM20.5465 6.59191L21.8058 8.52926L28.341 4.28123H20.5465V6.59191ZM4.74757 6.59191V4.28123H-3.04693L3.48824 8.52926L4.74757 6.59191ZM4.43127 18.9155H2.12059V21.2262H4.43127V18.9155ZM5.06388 17.6318C5.08864 17.6318 5.16738 17.6369 5.27248 17.679C5.38016 17.7221 5.46259 17.7831 5.51368 17.8341L2.24589 21.1019C3.02249 21.8785 4.01716 22.2532 5.06388 22.2532V17.6318ZM5.51368 17.8341C5.56478 17.8852 5.62535 17.9673 5.6682 18.0741C5.71 18.1783 5.71494 18.256 5.71497 18.2796L1.09362 18.2863C1.09513 19.3316 1.46948 20.3255 2.24589 21.1019L5.51368 17.8341ZM5.71498 18.2829V7.22452H1.09362V18.2829H5.71498ZM5.71498 7.22452C5.71498 7.24989 5.7098 7.3292 5.66742 7.43473C5.62403 7.54279 5.56288 7.62524 5.51191 7.67609L2.24765 4.40477C1.46973 5.18101 1.09362 6.17624 1.09362 7.22452H5.71498ZM5.51191 7.67609C5.4624 7.7255 5.38152 7.78551 5.27499 7.82832C5.17081 7.87019 5.09215 7.87558 5.0662 7.87562L5.0595 3.25426C4.01321 3.25578 3.02201 3.63208 2.24765 4.40477L5.51191 7.67609ZM5.06285 7.87562H20.2312V3.25426H5.06285V7.87562ZM20.2312 7.87562C20.205 7.87562 20.1253 7.8703 20.0196 7.82781C19.9114 7.78433 19.8291 7.72319 19.7786 7.67256L23.0499 4.4083C22.2743 3.63106 21.2798 3.25426 20.2312 3.25426V7.87562ZM19.7786 7.67256C19.7288 7.62271 19.6688 7.54166 19.6261 7.43524C19.5843 7.33126 19.5791 7.25305 19.5791 7.22787L24.2004 7.22117C24.1989 6.17523 23.8233 5.18334 23.0499 4.4083L19.7786 7.67256ZM19.5791 7.22452V18.2839H24.2004V7.22452H19.5791ZM19.5791 18.2839C19.5791 18.2578 19.5844 18.1784 19.6266 18.0732C19.6698 17.9657 19.7304 17.8841 19.7803 17.8341L23.0481 21.1019C23.8237 20.3264 24.2004 19.3325 24.2004 18.2839H19.5791ZM19.7803 17.8341C19.8303 17.7842 19.9122 17.7232 20.0206 17.6798C20.1267 17.6372 20.2072 17.6318 20.2345 17.6318L20.2278 22.2532C21.2778 22.2547 22.2724 21.8777 23.0481 21.1019L19.7803 17.8341ZM20.2312 17.6318H5.06388V22.2532H20.2312V17.6318ZM13.9116 10.9389L5.69582 5.56683L3.16671 9.43472L11.3825 14.8068L13.9116 10.9389ZM2.12059 7.50078V18.2839H6.74195V7.50078H2.12059ZM5.06388 21.2262H20.2312V16.6049H5.06388V21.2262ZM20.2312 21.2262C20.9612 21.2262 21.722 20.9687 22.319 20.3718L19.0512 17.104C19.2102 16.945 19.4102 16.8096 19.6406 16.7194C19.8667 16.6309 20.0732 16.6049 20.2312 16.6049V21.2262ZM22.319 20.3718C22.9177 19.7731 23.1734 19.0109 23.1734 18.2829H18.5521C18.5521 18.1264 18.5778 17.9206 18.666 17.6948C18.7559 17.4645 18.8913 17.2638 19.0512 17.104L22.319 20.3718ZM23.1734 18.2829V7.49975H18.5521V18.2829H23.1734ZM19.598 5.56592L11.3823 10.939L13.9117 14.8067L22.1275 9.43358L19.598 5.56592ZM13.9063 13.6641L21.8058 8.52926L19.2871 4.65456L11.3877 9.7894L13.9063 13.6641ZM20.5465 4.28123H4.74757V8.90259H20.5465V4.28123ZM3.48824 8.52926L11.3877 13.6641L13.9063 9.7894L6.0069 4.65456L3.48824 8.52926ZM6.74195 7.50078V6.59191H2.12059V7.50078H6.74195ZM2.12059 6.59191V18.2839H6.74195V6.59191H2.12059ZM5.06388 16.6049H4.43127V21.2262H5.06388V16.6049ZM6.74195 18.9155V7.50078H2.12059V18.9155H6.74195Z" fill="#101010" mask="url(#path-1-inside-1_307_4268)"/>
</svg>
