<svg width="25" height="26" viewBox="0 0 25 26" fill="none" xmlns="http://www.w3.org/2000/svg">
<mask id="path-1-inside-1_307_4258" fill="white">
<path d="M22.5566 21.2907C21.0903 18.7557 18.8306 16.938 16.1935 16.0763C17.4979 15.2998 18.5114 14.1165 19.0782 12.7083C19.6451 11.3001 19.734 9.74467 19.3313 8.281C18.9286 6.81734 18.0566 5.52632 16.8492 4.60622C15.6417 3.68612 14.1657 3.18781 12.6476 3.18781C11.1296 3.18781 9.65348 3.68612 8.44605 4.60622C7.23862 5.52632 6.3666 6.81734 5.96391 8.281C5.56122 9.74467 5.65013 11.3001 6.21697 12.7083C6.78382 14.1165 7.79727 15.2998 9.10168 16.0763C6.46461 16.937 4.20496 18.7548 2.73864 21.2907C2.68487 21.3784 2.6492 21.476 2.63375 21.5777C2.61829 21.6794 2.62336 21.7831 2.64865 21.8828C2.67394 21.9825 2.71894 22.0761 2.781 22.1582C2.84306 22.2402 2.92092 22.3089 3.00998 22.3604C3.09904 22.4118 3.19751 22.4449 3.29957 22.4577C3.40163 22.4705 3.50521 22.4627 3.60421 22.4348C3.7032 22.4069 3.79561 22.3594 3.87597 22.2952C3.95633 22.231 4.02302 22.1514 4.0721 22.061C5.88598 18.9262 9.09205 17.0545 12.6476 17.0545C16.2032 17.0545 19.4092 18.9262 21.2231 22.061C21.2722 22.1514 21.3389 22.231 21.4192 22.2952C21.4996 22.3594 21.592 22.4069 21.691 22.4348C21.79 22.4627 21.8936 22.4705 21.9956 22.4577C22.0977 22.4449 22.1962 22.4118 22.2852 22.3604C22.3743 22.3089 22.4522 22.2402 22.5142 22.1582C22.5763 22.0761 22.6213 21.9825 22.6466 21.8828C22.6719 21.7831 22.6769 21.6794 22.6615 21.5777C22.646 21.476 22.6103 21.3784 22.5566 21.2907ZM7.25602 10.1225C7.25602 9.05611 7.57223 8.0137 8.16467 7.12706C8.7571 6.24042 9.59915 5.54936 10.5843 5.14129C11.5695 4.73321 12.6536 4.62644 13.6995 4.83448C14.7453 5.04251 15.706 5.55601 16.46 6.31004C17.2141 7.06406 17.7276 8.02475 17.9356 9.07062C18.1436 10.1165 18.0369 11.2006 17.6288 12.1857C17.2207 13.1709 16.5297 14.013 15.643 14.6054C14.7564 15.1978 13.714 15.514 12.6476 15.514C11.2181 15.5125 9.84766 14.944 8.83687 13.9332C7.82608 12.9224 7.25755 11.5519 7.25602 10.1225Z"/>
</mask>
<path d="M22.5566 21.2907C21.0903 18.7557 18.8306 16.938 16.1935 16.0763C17.4979 15.2998 18.5114 14.1165 19.0782 12.7083C19.6451 11.3001 19.734 9.74467 19.3313 8.281C18.9286 6.81734 18.0566 5.52632 16.8492 4.60622C15.6417 3.68612 14.1657 3.18781 12.6476 3.18781C11.1296 3.18781 9.65348 3.68612 8.44605 4.60622C7.23862 5.52632 6.3666 6.81734 5.96391 8.281C5.56122 9.74467 5.65013 11.3001 6.21697 12.7083C6.78382 14.1165 7.79727 15.2998 9.10168 16.0763C6.46461 16.937 4.20496 18.7548 2.73864 21.2907C2.68487 21.3784 2.6492 21.476 2.63375 21.5777C2.61829 21.6794 2.62336 21.7831 2.64865 21.8828C2.67394 21.9825 2.71894 22.0761 2.781 22.1582C2.84306 22.2402 2.92092 22.3089 3.00998 22.3604C3.09904 22.4118 3.19751 22.4449 3.29957 22.4577C3.40163 22.4705 3.50521 22.4627 3.60421 22.4348C3.7032 22.4069 3.79561 22.3594 3.87597 22.2952C3.95633 22.231 4.02302 22.1514 4.0721 22.061C5.88598 18.9262 9.09205 17.0545 12.6476 17.0545C16.2032 17.0545 19.4092 18.9262 21.2231 22.061C21.2722 22.1514 21.3389 22.231 21.4192 22.2952C21.4996 22.3594 21.592 22.4069 21.691 22.4348C21.79 22.4627 21.8936 22.4705 21.9956 22.4577C22.0977 22.4449 22.1962 22.4118 22.2852 22.3604C22.3743 22.3089 22.4522 22.2402 22.5142 22.1582C22.5763 22.0761 22.6213 21.9825 22.6466 21.8828C22.6719 21.7831 22.6769 21.6794 22.6615 21.5777C22.646 21.476 22.6103 21.3784 22.5566 21.2907ZM7.25602 10.1225C7.25602 9.05611 7.57223 8.0137 8.16467 7.12706C8.7571 6.24042 9.59915 5.54936 10.5843 5.14129C11.5695 4.73321 12.6536 4.62644 13.6995 4.83448C14.7453 5.04251 15.706 5.55601 16.46 6.31004C17.2141 7.06406 17.7276 8.02475 17.9356 9.07062C18.1436 10.1165 18.0369 11.2006 17.6288 12.1857C17.2207 13.1709 16.5297 14.013 15.643 14.6054C14.7564 15.1978 13.714 15.514 12.6476 15.514C11.2181 15.5125 9.84766 14.944 8.83687 13.9332C7.82608 12.9224 7.25755 11.5519 7.25602 10.1225Z" fill="#101010"/>
<path d="M22.5566 21.2907L20.5564 22.4477L20.5713 22.4734L20.5868 22.4988L22.5566 21.2907ZM16.1935 16.0763L15.0116 14.0908L10.6408 16.6928L15.4758 18.2727L16.1935 16.0763ZM12.6476 3.18781V0.877126V3.18781ZM9.10168 16.0763L9.81865 18.2729L14.6564 16.6939L10.2837 14.0908L9.10168 16.0763ZM2.73864 21.2907L4.70839 22.4988L4.72403 22.4733L4.73901 22.4474L2.73864 21.2907ZM4.0721 22.061L2.07209 20.9037L2.05642 20.9308L2.04148 20.9583L4.0721 22.061ZM21.2231 22.061L23.2537 20.9583L23.2388 20.9308L23.2231 20.9037L21.2231 22.061ZM7.25602 10.1225H4.94534L4.94534 10.1249L7.25602 10.1225ZM12.6476 15.514L12.6451 17.8247H12.6476V15.514ZM24.5567 20.1338C22.8105 17.1149 20.0987 14.9215 16.9112 13.8799L15.4758 18.2727C17.5625 18.9546 19.37 20.3966 20.5564 22.4477L24.5567 20.1338ZM17.3755 18.0618C19.1147 17.0264 20.466 15.4488 21.2218 13.5711L16.9347 11.8455C16.5568 12.7843 15.8812 13.5731 15.0116 14.0908L17.3755 18.0618ZM21.2218 13.5711C21.9776 11.6935 22.0961 9.61961 21.5592 7.66806L17.1034 8.89395C17.3719 9.86973 17.3126 10.9067 16.9347 11.8455L21.2218 13.5711ZM21.5592 7.66806C21.0223 5.7165 19.8596 3.99515 18.2497 2.76835L15.4486 6.4441C16.2536 7.0575 16.8349 7.91817 17.1034 8.89395L21.5592 7.66806ZM18.2497 2.76835C16.6398 1.54154 14.6717 0.877126 12.6476 0.877126V5.49848C13.6596 5.49848 14.6437 5.83069 15.4486 6.4441L18.2497 2.76835ZM12.6476 0.877126C10.6235 0.877126 8.65543 1.54154 7.04553 2.76835L9.84657 6.4441C10.6515 5.83069 11.6356 5.49848 12.6476 5.49848V0.877126ZM7.04553 2.76835C5.43562 3.99515 4.27293 5.7165 3.73601 7.66806L8.19181 8.89395C8.46027 7.91817 9.04161 7.0575 9.84657 6.4441L7.04553 2.76835ZM3.73601 7.66806C3.19909 9.61961 3.31763 11.6935 4.07343 13.5711L8.36052 11.8455C7.98262 10.9067 7.92335 9.86973 8.19181 8.89395L3.73601 7.66806ZM4.07343 13.5711C4.82923 15.4488 6.18049 17.0264 7.9197 18.0618L10.2837 14.0908C9.41405 13.5731 8.73842 12.7843 8.36052 11.8455L4.07343 13.5711ZM8.3847 13.8797C5.19656 14.9203 2.48446 17.1141 0.738279 20.1341L4.73901 22.4474C5.92547 20.3954 7.73267 18.9538 9.81865 18.2729L8.3847 13.8797ZM0.768894 20.0827C0.553803 20.4334 0.411136 20.8237 0.349308 21.2304L4.91819 21.9249C4.88727 22.1283 4.81594 22.3234 4.70839 22.4988L0.768894 20.0827ZM0.349308 21.2304C0.287481 21.6372 0.307745 22.0522 0.408906 22.451L4.88839 21.3147C4.93897 21.514 4.9491 21.7215 4.91819 21.9249L0.349308 21.2304ZM0.408906 22.451C0.510068 22.8498 0.690078 23.2242 0.938312 23.5523L4.62368 20.764C4.7478 20.928 4.83781 21.1153 4.88839 21.3147L0.408906 22.451ZM0.938312 23.5523C1.18655 23.8804 1.49798 24.1555 1.85424 24.3613L4.16572 20.3595C4.34385 20.4624 4.49957 20.5999 4.62368 20.764L0.938312 23.5523ZM1.85424 24.3613C2.21051 24.567 2.60438 24.6994 3.01259 24.7505L3.58654 20.1649C3.79064 20.1904 3.98758 20.2566 4.16572 20.3595L1.85424 24.3613ZM3.01259 24.7505C3.42081 24.8016 3.83514 24.7704 4.23114 24.6588L2.97727 20.2108C3.17527 20.1549 3.38244 20.1394 3.58654 20.1649L3.01259 24.7505ZM4.23114 24.6588C4.62714 24.5471 4.99675 24.3573 5.31819 24.1005L2.43375 20.4899C2.59446 20.3615 2.77927 20.2666 2.97727 20.2108L4.23114 24.6588ZM5.31819 24.1005C5.63963 23.8438 5.90638 23.5252 6.10271 23.1636L2.04148 20.9583C2.13965 20.7775 2.27302 20.6183 2.43375 20.4899L5.31819 24.1005ZM6.0721 23.2182C7.48242 20.7809 9.93556 19.3652 12.6476 19.3652V14.7438C8.24854 14.7438 4.28954 17.0715 2.07209 20.9037L6.0721 23.2182ZM12.6476 19.3652C15.3597 19.3652 17.8128 20.7809 19.2231 23.2182L23.2231 20.9037C21.0057 17.0715 17.0467 14.7438 12.6476 14.7438V19.3652ZM19.1925 23.1636C19.3888 23.5252 19.6556 23.8438 19.977 24.1005L22.8615 20.4899C23.0222 20.6183 23.1556 20.7775 23.2537 20.9583L19.1925 23.1636ZM19.977 24.1005C20.2985 24.3573 20.6681 24.5471 21.0641 24.6588L22.3179 20.2108C22.516 20.2666 22.7008 20.3615 22.8615 20.4899L19.977 24.1005ZM21.0641 24.6588C21.4601 24.7704 21.8744 24.8016 22.2826 24.7505L21.7087 20.1649C21.9128 20.1394 22.1199 20.1549 22.3179 20.2108L21.0641 24.6588ZM22.2826 24.7505C22.6908 24.6994 23.0847 24.567 23.441 24.3613L21.1295 20.3595C21.3076 20.2566 21.5046 20.1904 21.7087 20.1649L22.2826 24.7505ZM23.441 24.3613C23.7972 24.1555 24.1087 23.8804 24.3569 23.5523L20.6715 20.764C20.7957 20.5999 20.9514 20.4624 21.1295 20.3595L23.441 24.3613ZM24.3569 23.5523C24.6051 23.2242 24.7852 22.8497 24.8863 22.451L20.4068 21.3147C20.4574 21.1153 20.5474 20.928 20.6715 20.764L24.3569 23.5523ZM24.8863 22.451C24.9875 22.0522 25.0077 21.6372 24.9459 21.2304L20.377 21.9249C20.3461 21.7215 20.3562 21.514 20.4068 21.3147L24.8863 22.451ZM24.9459 21.2304C24.8841 20.8237 24.7414 20.4334 24.5263 20.0827L20.5868 22.4988C20.4793 22.3234 20.4079 22.1283 20.377 21.9249L24.9459 21.2304ZM9.5667 10.1225C9.5667 9.51312 9.74739 8.91746 10.0859 8.4108L6.24341 5.84331C5.39707 7.10995 4.94534 8.5991 4.94534 10.1225H9.5667ZM10.0859 8.4108C10.4245 7.90415 10.9056 7.50926 11.4686 7.27608L9.70008 3.0065C8.29267 3.58946 7.08974 4.57668 6.24341 5.84331L10.0859 8.4108ZM11.4686 7.27608C12.0316 7.04289 12.651 6.98188 13.2487 7.10076L14.1502 2.56819C12.6562 2.271 11.1075 2.42353 9.70008 3.0065L11.4686 7.27608ZM13.2487 7.10076C13.8463 7.21963 14.3953 7.51306 14.8261 7.94393L18.0939 4.67614C17.0168 3.59896 15.6443 2.86539 14.1502 2.56819L13.2487 7.10076ZM14.8261 7.94393C15.257 8.37481 15.5504 8.92377 15.6693 9.52141L20.2019 8.61983C19.9047 7.12573 19.1711 5.75332 18.0939 4.67614L14.8261 7.94393ZM15.6693 9.52141C15.7882 10.119 15.7272 10.7385 15.494 11.3015L19.7636 13.07C20.3465 11.6626 20.4991 10.1139 20.2019 8.61983L15.6693 9.52141ZM15.494 11.3015C15.2608 11.8644 14.8659 12.3456 14.3593 12.6841L16.9268 16.5267C18.1934 15.6803 19.1806 14.4774 19.7636 13.07L15.494 11.3015ZM14.3593 12.6841C13.8526 13.0227 13.257 13.2034 12.6476 13.2034V17.8247C14.171 17.8247 15.6601 17.373 16.9268 16.5267L14.3593 12.6841ZM12.6501 13.2034C11.8326 13.2025 11.0488 12.8774 10.4708 12.2993L7.20297 15.5671C8.64649 17.0106 10.6037 17.8225 12.6451 17.8247L12.6501 13.2034ZM10.4708 12.2993C9.89271 11.7212 9.56757 10.9375 9.5667 10.12L4.94534 10.1249C4.94753 12.1664 5.75945 14.1236 7.20297 15.5671L10.4708 12.2993Z" fill="#101010" mask="url(#path-1-inside-1_307_4258)"/>
</svg>
