<svg width="20" height="17" viewBox="0 0 20 17" fill="none" xmlns="http://www.w3.org/2000/svg">
<path d="M19.0241 13.3288C19.2642 13.3288 19.5043 13.5689 19.5043 13.809V14.2893C19.5043 15.3699 18.6339 16.2103 17.5833 16.2103H2.21498C1.1344 16.2103 0.293945 15.3699 0.293945 14.2893V13.809C0.293945 13.5689 0.504059 13.3288 0.774205 13.3288H7.94808C7.91807 13.779 8.36831 14.2893 8.93862 14.2893H10.7396C11.2799 14.2893 11.7001 13.9291 11.7301 13.3288H19.0241ZM17.5833 2.28282V12.3683H2.21498V2.28282C2.21498 1.5024 2.84532 0.842039 3.65576 0.842039H16.1425C16.9229 0.842039 17.5833 1.5024 17.5833 2.28282ZM15.6623 10.4472V2.76308H4.13602V10.4472H15.6623Z" fill="white"/>
</svg>
