<svg width="25" height="24" viewBox="0 0 25 24" fill="none" xmlns="http://www.w3.org/2000/svg">
<path d="M14.3934 1.22299L14.9724 2.84999C15.0587 3.09245 15.1949 3.31411 15.3722 3.50065C15.5495 3.68719 15.764 3.83446 16.0018 3.93294C16.2395 4.03143 16.4953 4.07893 16.7526 4.0724C17.0099 4.06586 17.2629 4.00542 17.4954 3.89499L19.0554 3.15399C20.6184 2.41099 22.2494 4.04199 21.5064 5.60499L20.7654 7.16499C20.6546 7.3974 20.5939 7.6505 20.5873 7.90787C20.5806 8.16523 20.628 8.42114 20.7265 8.659C20.825 8.89686 20.9724 9.11137 21.1591 9.28863C21.3459 9.46589 21.5677 9.60195 21.8104 9.68799L23.4374 10.266C25.0674 10.846 25.0674 13.152 23.4374 13.733L21.8104 14.312C21.5679 14.3983 21.3463 14.5345 21.1597 14.7118C20.9732 14.8891 20.8259 15.1036 20.7274 15.3414C20.629 15.5791 20.5814 15.8349 20.588 16.0922C20.5945 16.3495 20.655 16.6025 20.7654 16.835L21.5064 18.395C22.2494 19.958 20.6184 21.589 19.0554 20.846L17.4954 20.105C17.263 19.9944 17.01 19.9338 16.7527 19.9271C16.4955 19.9204 16.2396 19.9678 16.0018 20.0662C15.764 20.1646 15.5495 20.3118 15.3722 20.4983C15.1949 20.6849 15.0587 20.9065 14.9724 21.149L14.3934 22.777C13.8134 24.407 11.5074 24.407 10.9274 22.777L10.3484 21.149C10.262 20.9066 10.1257 20.6851 9.94835 20.4986C9.771 20.3122 9.55651 20.165 9.31875 20.0667C9.08099 19.9683 8.82523 19.9208 8.568 19.9274C8.31077 19.9341 8.05779 19.9945 7.82539 20.105L6.26539 20.845C4.70239 21.589 3.07139 19.958 3.81439 18.395L4.55539 16.835C4.66616 16.6024 4.72687 16.3492 4.73358 16.0917C4.74029 15.8342 4.69286 15.5781 4.59435 15.3401C4.49585 15.1021 4.34846 14.8874 4.16174 14.71C3.97501 14.5325 3.75311 14.3963 3.51039 14.31L1.88339 13.732C0.253389 13.152 0.253389 10.845 1.88339 10.265L3.51039 9.68699C3.75311 9.601 3.97509 9.46502 4.16195 9.28784C4.34882 9.11067 4.49641 8.89624 4.59519 8.65844C4.69397 8.42063 4.74174 8.16473 4.7354 7.90731C4.72906 7.64988 4.66876 7.39664 4.55839 7.16399L3.81639 5.60399C3.07339 4.03999 4.70439 2.40899 6.26839 3.15199L7.82839 3.89399C8.06074 4.00427 8.31364 4.06462 8.57075 4.07114C8.82787 4.07765 9.08349 4.03019 9.32114 3.93182C9.55878 3.83345 9.77316 3.68635 9.95044 3.50001C10.1277 3.31367 10.264 3.09223 10.3504 2.84999L10.9284 1.22299C11.5064 -0.407012 13.8134 -0.407012 14.3934 1.22299Z" fill="#FEC600"/>
</svg>
