<svg width="25" height="26" viewBox="0 0 25 26" fill="none" xmlns="http://www.w3.org/2000/svg">
<mask id="path-1-inside-1_307_4278" fill="white">
<path d="M21.5804 16.5896L17.0341 14.5553C16.8579 14.479 16.6654 14.4478 16.4741 14.4647C16.2828 14.4815 16.0987 14.5457 15.9384 14.6515C15.9256 14.6597 15.9134 14.6687 15.9019 14.6785L13.5142 16.7138C13.461 16.7462 13.4007 16.765 13.3386 16.7686C13.2764 16.7721 13.2144 16.7602 13.1579 16.734C11.5944 15.9792 9.97593 14.3733 9.22111 12.828C9.19441 12.772 9.18201 12.7102 9.18504 12.6482C9.18806 12.5862 9.20641 12.5259 9.23844 12.4728L11.2795 10.0456C11.2892 10.034 11.2978 10.0215 11.3065 10.009C11.412 9.84898 11.4761 9.66523 11.4929 9.4743C11.5097 9.28337 11.4787 9.09126 11.4028 8.91527L9.36456 4.37671C9.26617 4.14684 9.09585 3.9551 8.87919 3.83028C8.66253 3.70546 8.41123 3.65429 8.16301 3.68447C6.95142 3.84422 5.8394 4.43955 5.03467 5.35927C4.22993 6.27899 3.78752 7.4602 3.79005 8.68228C3.79005 16.115 9.83633 22.1612 17.269 22.1612C18.4911 22.1638 19.6723 21.7214 20.592 20.9166C21.5117 20.1119 22.1071 18.9999 22.2668 17.7883C22.2968 17.5412 22.2461 17.291 22.1224 17.0751C21.9988 16.8591 21.8086 16.6888 21.5804 16.5896ZM21.5053 17.692C21.3693 18.7181 20.8643 19.6595 20.0846 20.3403C19.305 21.0211 18.3041 21.3946 17.269 21.391C10.2619 21.391 4.56028 15.6894 4.56028 8.68228C4.55669 7.64724 4.93021 6.64632 5.61099 5.86666C6.29177 5.08701 7.23321 4.58199 8.25929 4.44603C8.27468 4.44511 8.29011 4.44511 8.3055 4.44603C8.38148 4.44668 8.45557 4.46979 8.51844 4.51245C8.58131 4.5551 8.63016 4.61541 8.65884 4.68577L10.6913 9.22433C10.715 9.2798 10.7253 9.34006 10.7215 9.40027C10.7177 9.46047 10.6997 9.51893 10.6691 9.57093L8.629 11.9971C8.61937 12.0097 8.60974 12.0212 8.60108 12.0347C8.49239 12.2009 8.42838 12.3923 8.41522 12.5905C8.40207 12.7886 8.44021 12.9868 8.52598 13.166C9.36264 14.8788 11.0879 16.5915 12.82 17.4282C13.0003 17.5134 13.1997 17.5505 13.3986 17.5358C13.5975 17.5211 13.7892 17.4552 13.9551 17.3444L13.9907 17.3175L16.3813 15.2841C16.4325 15.2528 16.4903 15.2342 16.5501 15.2297C16.6098 15.2252 16.6698 15.2349 16.725 15.2581L21.2703 17.2953C21.347 17.3273 21.4114 17.3831 21.4537 17.4546C21.496 17.5261 21.5141 17.6094 21.5053 17.692Z"/>
</mask>
<path d="M21.5804 16.5896L17.0341 14.5553C16.8579 14.479 16.6654 14.4478 16.4741 14.4647C16.2828 14.4815 16.0987 14.5457 15.9384 14.6515C15.9256 14.6597 15.9134 14.6687 15.9019 14.6785L13.5142 16.7138C13.461 16.7462 13.4007 16.765 13.3386 16.7686C13.2764 16.7721 13.2144 16.7602 13.1579 16.734C11.5944 15.9792 9.97593 14.3733 9.22111 12.828C9.19441 12.772 9.18201 12.7102 9.18504 12.6482C9.18806 12.5862 9.20641 12.5259 9.23844 12.4728L11.2795 10.0456C11.2892 10.034 11.2978 10.0215 11.3065 10.009C11.412 9.84898 11.4761 9.66523 11.4929 9.4743C11.5097 9.28337 11.4787 9.09126 11.4028 8.91527L9.36456 4.37671C9.26617 4.14684 9.09585 3.9551 8.87919 3.83028C8.66253 3.70546 8.41123 3.65429 8.16301 3.68447C6.95142 3.84422 5.8394 4.43955 5.03467 5.35927C4.22993 6.27899 3.78752 7.4602 3.79005 8.68228C3.79005 16.115 9.83633 22.1612 17.269 22.1612C18.4911 22.1638 19.6723 21.7214 20.592 20.9166C21.5117 20.1119 22.1071 18.9999 22.2668 17.7883C22.2968 17.5412 22.2461 17.291 22.1224 17.0751C21.9988 16.8591 21.8086 16.6888 21.5804 16.5896ZM21.5053 17.692C21.3693 18.7181 20.8643 19.6595 20.0846 20.3403C19.305 21.0211 18.3041 21.3946 17.269 21.391C10.2619 21.391 4.56028 15.6894 4.56028 8.68228C4.55669 7.64724 4.93021 6.64632 5.61099 5.86666C6.29177 5.08701 7.23321 4.58199 8.25929 4.44603C8.27468 4.44511 8.29011 4.44511 8.3055 4.44603C8.38148 4.44668 8.45557 4.46979 8.51844 4.51245C8.58131 4.5551 8.63016 4.61541 8.65884 4.68577L10.6913 9.22433C10.715 9.2798 10.7253 9.34006 10.7215 9.40027C10.7177 9.46047 10.6997 9.51893 10.6691 9.57093L8.629 11.9971C8.61937 12.0097 8.60974 12.0212 8.60108 12.0347C8.49239 12.2009 8.42838 12.3923 8.41522 12.5905C8.40207 12.7886 8.44021 12.9868 8.52598 13.166C9.36264 14.8788 11.0879 16.5915 12.82 17.4282C13.0003 17.5134 13.1997 17.5505 13.3986 17.5358C13.5975 17.5211 13.7892 17.4552 13.9551 17.3444L13.9907 17.3175L16.3813 15.2841C16.4325 15.2528 16.4903 15.2342 16.5501 15.2297C16.6098 15.2252 16.6698 15.2349 16.725 15.2581L21.2703 17.2953C21.347 17.3273 21.4114 17.3831 21.4537 17.4546C21.496 17.5261 21.5141 17.6094 21.5053 17.692Z" fill="#101010"/>
<path d="M21.5804 16.5896L20.6366 18.6988L20.648 18.7039L20.6594 18.7088L21.5804 16.5896ZM17.0341 14.5553L17.9779 12.4461L17.9649 12.4403L17.9519 12.4347L17.0341 14.5553ZM15.9384 14.6515L17.1767 16.6024L17.1944 16.5912L17.212 16.5796L15.9384 14.6515ZM15.9019 14.6785L14.4053 12.9179L14.4029 12.92L15.9019 14.6785ZM13.5142 16.7138L14.7174 18.6865L14.8737 18.5911L15.0131 18.4723L13.5142 16.7138ZM13.1579 16.734L12.1534 18.8149L12.1695 18.8227L12.1857 18.8302L13.1579 16.734ZM9.22111 12.828L7.13514 13.822L7.13997 13.8321L7.14489 13.8422L9.22111 12.828ZM9.23844 12.4728L7.46996 10.9856L7.35294 11.1247L7.25912 11.2805L9.23844 12.4728ZM11.2795 10.0456L13.048 11.5328L13.0547 11.5248L11.2795 10.0456ZM11.3065 10.009L13.2063 11.3243L13.2212 11.3028L13.2355 11.281L11.3065 10.009ZM11.4028 8.91527L13.5244 7.99984L13.5176 7.98419L13.5107 7.96865L11.4028 8.91527ZM9.36456 4.37671L7.24032 5.28602L7.24834 5.30475L7.25669 5.32333L9.36456 4.37671ZM8.16301 3.68447L7.88414 1.39068L7.87255 1.39209L7.86097 1.39362L8.16301 3.68447ZM3.79005 8.68228H6.10073L6.10072 8.67749L3.79005 8.68228ZM17.269 22.1612L17.2738 19.8506H17.269V22.1612ZM22.2668 17.7883L24.5577 18.0903L24.5592 18.0784L24.5607 18.0664L22.2668 17.7883ZM21.5053 17.692L23.7959 17.9955L23.7997 17.9672L23.8027 17.9387L21.5053 17.692ZM17.269 21.391L17.277 19.0803H17.269V21.391ZM4.56028 8.68228H6.87097L6.87094 8.67427L4.56028 8.68228ZM8.25929 4.44603L8.12065 2.13952L8.03793 2.14449L7.95577 2.15537L8.25929 4.44603ZM8.3055 4.44603L8.16686 6.75255L8.22628 6.75612L8.28581 6.75663L8.3055 4.44603ZM8.65884 4.68577L6.5191 5.55796L6.53392 5.59432L6.54996 5.63015L8.65884 4.68577ZM10.6913 9.22433L12.8159 8.31602L12.8082 8.29791L12.8002 8.27994L10.6913 9.22433ZM10.6691 9.57093L12.4377 11.058L12.5626 10.9095L12.6609 10.7422L10.6691 9.57093ZM8.629 11.9971L6.86046 10.51L6.82813 10.5485L6.7975 10.5883L8.629 11.9971ZM8.60108 12.0347L10.535 13.2993L10.5399 13.2918L10.5448 13.2842L8.60108 12.0347ZM8.52598 13.166L6.44189 14.1639L6.4458 14.172L6.44976 14.1801L8.52598 13.166ZM12.82 17.4282L11.8149 19.5089L11.8239 19.5132L11.8329 19.5174L12.82 17.4282ZM13.9551 17.3444L15.2382 19.2661L15.295 19.2282L15.3495 19.187L13.9551 17.3444ZM13.9907 17.3175L15.3851 19.16L15.4376 19.1203L15.4878 19.0776L13.9907 17.3175ZM16.3813 15.2841L15.1767 13.3123L15.0222 13.4067L14.8842 13.524L16.3813 15.2841ZM16.725 15.2581L17.6701 13.1495L17.6449 13.1382L17.6194 13.1275L16.725 15.2581ZM21.2703 17.2953L20.3253 19.4039L20.3537 19.4166L20.3824 19.4286L21.2703 17.2953ZM22.5242 14.4805L17.9779 12.4461L16.0903 16.6644L20.6366 18.6988L22.5242 14.4805ZM17.9519 12.4347C17.4231 12.2058 16.8457 12.1124 16.2718 12.1628L16.6763 16.7665C16.485 16.7833 16.2926 16.7521 16.1163 16.6759L17.9519 12.4347ZM16.2718 12.1628C15.6979 12.2133 15.1456 12.406 14.6649 12.7235L17.212 16.5796C17.0517 16.6854 16.8677 16.7497 16.6763 16.7665L16.2718 12.1628ZM14.7002 12.7007C14.5969 12.7662 14.4984 12.8388 14.4053 12.9179L17.3984 16.4391C17.3284 16.4986 17.2543 16.5531 17.1767 16.6024L14.7002 12.7007ZM14.4029 12.92L12.0152 14.9553L15.0131 18.4723L17.4008 16.437L14.4029 12.92ZM12.311 14.7411C12.5823 14.5756 12.8903 14.4796 13.2076 14.4616L13.4695 19.0755C13.9111 19.0505 14.3397 18.9168 14.7174 18.6865L12.311 14.7411ZM13.2076 14.4616C13.525 14.4436 13.8418 14.5041 14.1302 14.6379L12.1857 18.8302C12.5869 19.0163 13.0279 19.1006 13.4695 19.0755L13.2076 14.4616ZM14.1625 14.6531C13.061 14.1214 11.8224 12.8887 11.2973 11.8138L7.14489 13.8422C8.12948 15.8578 10.1278 17.8371 12.1534 18.8149L14.1625 14.6531ZM11.3071 11.834C11.4447 12.1228 11.5086 12.4412 11.493 12.7608L6.8771 12.5356C6.85547 12.9792 6.94413 13.4211 7.13514 13.822L11.3071 11.834ZM11.493 12.7608C11.4774 13.0803 11.3828 13.391 11.2178 13.665L7.25912 11.2805C7.02999 11.6609 6.89874 12.0921 6.8771 12.5356L11.493 12.7608ZM11.0069 13.9599L13.048 11.5328L9.51106 8.5584L7.46996 10.9856L11.0069 13.9599ZM13.0547 11.5248C13.1029 11.4669 13.1402 11.417 13.1637 11.3845C13.1857 11.3543 13.2045 11.3269 13.2063 11.3243L9.40667 8.69373C9.39987 8.70357 9.41001 8.68875 9.42305 8.67078C9.43769 8.65059 9.46579 8.61268 9.50443 8.56632L13.0547 11.5248ZM13.2355 11.281C13.5521 10.801 13.7442 10.2497 13.7946 9.67692L9.19108 9.27168C9.20789 9.08075 9.27193 8.897 9.37745 8.73699L13.2355 11.281ZM13.7946 9.67692C13.8451 9.10413 13.7522 8.5278 13.5244 7.99984L9.28117 9.83071C9.20523 9.65472 9.17428 9.46261 9.19108 9.27168L13.7946 9.67692ZM13.5107 7.96865L11.4724 3.43009L7.25669 5.32333L9.2949 9.86189L13.5107 7.96865ZM11.4888 3.4674C11.1936 2.7778 10.6827 2.20257 10.0327 1.82811L7.7257 5.83245C7.50904 5.70763 7.33872 5.51589 7.24032 5.28602L11.4888 3.4674ZM10.0327 1.82811C9.38271 1.45364 8.62879 1.30015 7.88414 1.39068L8.44188 5.97826C8.19366 6.00844 7.94235 5.95727 7.7257 5.83245L10.0327 1.82811ZM7.86097 1.39362C6.09285 1.62674 4.47005 2.49552 3.29568 3.8377L6.77365 6.88084C7.20875 6.38357 7.80998 6.06169 8.46505 5.97533L7.86097 1.39362ZM3.29568 3.8377C2.12131 5.17987 1.47568 6.90365 1.47938 8.68707L6.10072 8.67749C6.09935 8.01675 6.33856 7.3781 6.77365 6.88084L3.29568 3.8377ZM1.47937 8.68228C1.47937 17.3911 8.56017 24.4719 17.269 24.4719V19.8506C11.1125 19.8506 6.10073 14.8388 6.10073 8.68228H1.47937ZM17.2642 24.4719C19.0476 24.4756 20.7714 23.83 22.1136 22.6556L19.0705 19.1776C18.5732 19.6127 17.9345 19.8519 17.2738 19.8506L17.2642 24.4719ZM22.1136 22.6556C23.4558 21.4812 24.3246 19.8584 24.5577 18.0903L19.976 17.4862C19.8896 18.1413 19.5677 18.7425 19.0705 19.1776L22.1136 22.6556ZM24.5607 18.0664C24.6506 17.3251 24.4987 16.5747 24.1276 15.9267L20.1173 18.2234C19.9936 18.0074 19.943 17.7573 19.9729 17.5102L24.5607 18.0664ZM24.1276 15.9267C23.7565 15.2788 23.1861 14.768 22.5013 14.4704L20.6594 18.7088C20.4311 18.6096 20.241 18.4394 20.1173 18.2234L24.1276 15.9267ZM19.2146 17.3885C19.1524 17.8578 18.9214 18.2884 18.5648 18.5998L21.6044 22.0808C22.8071 21.0307 23.5862 19.5784 23.7959 17.9955L19.2146 17.3885ZM18.5648 18.5998C18.2082 18.9112 17.7504 19.082 17.277 19.0804L17.261 23.7017C18.8577 23.7072 20.4017 23.131 21.6044 22.0808L18.5648 18.5998ZM17.269 19.0803C11.538 19.0803 6.87096 14.4133 6.87096 8.68228H2.2496C2.2496 16.9656 8.98572 23.7017 17.269 23.7017V19.0803ZM6.87094 8.67427C6.8693 8.20086 7.04014 7.74306 7.35152 7.38646L3.87046 4.34686C2.82027 5.54957 2.24408 7.09361 2.24961 8.69028L6.87094 8.67427ZM7.35152 7.38646C7.6629 7.02986 8.09349 6.79888 8.5628 6.73669L7.95577 2.15537C6.37292 2.3651 4.92064 3.14415 3.87046 4.34686L7.35152 7.38646ZM8.39793 6.75255C8.32098 6.75718 8.24381 6.75718 8.16686 6.75255L8.44414 2.13952C8.33641 2.13304 8.22838 2.13304 8.12065 2.13952L8.39793 6.75255ZM8.28581 6.75663C7.90593 6.75339 7.53549 6.63786 7.22112 6.42456L9.81576 2.60033C9.37564 2.30172 8.85703 2.13997 8.3252 2.13544L8.28581 6.75663ZM7.22112 6.42456C6.90675 6.21127 6.66249 5.90975 6.5191 5.55796L10.7986 3.81357C10.5978 3.32106 10.2559 2.89894 9.81576 2.60033L7.22112 6.42456ZM6.54996 5.63015L8.5824 10.1687L12.8002 8.27994L10.7677 3.74138L6.54996 5.63015ZM8.56661 10.1326C8.44804 9.85529 8.39629 9.55396 8.41552 9.25294L13.0275 9.54759C13.0544 9.12616 12.9819 8.7043 12.8159 8.31602L8.56661 10.1326ZM8.41552 9.25294C8.43475 8.95191 8.52444 8.65962 8.67733 8.39962L12.6609 10.7422C12.875 10.3782 13.0006 9.96903 13.0275 9.54759L8.41552 9.25294ZM8.9006 8.08381L6.86046 10.51L10.3975 13.4843L12.4377 11.058L8.9006 8.08381ZM6.7975 10.5883C6.80255 10.5817 6.80701 10.5761 6.80269 10.5816C6.80075 10.584 6.79069 10.5969 6.77917 10.6119C6.75518 10.6433 6.70909 10.7047 6.65738 10.7852L10.5448 13.2842C10.5017 13.3512 10.4648 13.4001 10.4502 13.4192C10.4434 13.4281 10.438 13.4348 10.4409 13.4312C10.4414 13.4306 10.4506 13.4188 10.4605 13.406L6.7975 10.5883ZM6.66718 10.7701C6.34111 11.2687 6.14908 11.843 6.10962 12.4374L10.7208 12.7435C10.7077 12.9417 10.6437 13.1331 10.535 13.2993L6.66718 10.7701ZM6.10962 12.4374C6.07015 13.0319 6.18459 13.6265 6.44189 14.1639L10.6101 12.1681C10.6958 12.3472 10.734 12.5454 10.7208 12.7435L6.10962 12.4374ZM6.44976 14.1801C7.51596 16.3628 9.62078 18.449 11.8149 19.5089L13.825 15.3476C12.5551 14.7341 11.2093 13.3947 10.6022 12.1518L6.44976 14.1801ZM11.8329 19.5174C12.3739 19.773 12.9719 19.8843 13.5686 19.8402L13.2285 15.2314C13.4275 15.2167 13.6268 15.2538 13.8071 15.339L11.8329 19.5174ZM13.5686 19.8402C14.1654 19.7962 14.7406 19.5984 15.2382 19.2661L12.672 15.4228C12.8379 15.312 13.0296 15.2461 13.2285 15.2314L13.5686 19.8402ZM15.3495 19.187L15.3851 19.16L12.5964 15.4749L12.5607 15.5019L15.3495 19.187ZM15.4878 19.0776L17.8784 17.0442L14.8842 13.524L12.4936 15.5574L15.4878 19.0776ZM17.586 17.2559C17.3248 17.4155 17.0295 17.5107 16.7243 17.5338L16.3758 12.9256C15.9511 12.9577 15.5401 13.0902 15.1767 13.3123L17.586 17.2559ZM16.7243 17.5338C16.4191 17.5569 16.1129 17.5071 15.8307 17.3887L17.6194 13.1275C17.2267 12.9627 16.8005 12.8935 16.3758 12.9256L16.7243 17.5338ZM15.78 17.3667L20.3253 19.4039L22.2154 15.1868L17.6701 13.1495L15.78 17.3667ZM20.3824 19.4286C19.9989 19.269 19.6772 18.9896 19.4655 18.6321L23.4419 16.2772C23.1455 15.7767 22.6952 15.3856 22.1583 15.1621L20.3824 19.4286ZM19.4655 18.6321C19.2538 18.2746 19.1634 17.8583 19.2078 17.4453L23.8027 17.9387C23.8648 17.3605 23.7383 16.7776 23.4419 16.2772L19.4655 18.6321Z" fill="#101010" mask="url(#path-1-inside-1_307_4278)"/>
</svg>
